<?xml version="1.0" encoding="UTF-8" standalone="no"?>
<!-- Generator: Adobe Illustrator 19.2.1, SVG Export Plug-In . SVG Version: 6.00 Build 0)  -->

<svg
   xmlns:dc="http://purl.org/dc/elements/1.1/"
   xmlns:cc="http://creativecommons.org/ns#"
   xmlns:rdf="http://www.w3.org/1999/02/22-rdf-syntax-ns#"
   xmlns:svg="http://www.w3.org/2000/svg"
   xmlns="http://www.w3.org/2000/svg"
   xmlns:xlink="http://www.w3.org/1999/xlink"
   xmlns:sodipodi="http://sodipodi.sourceforge.net/DTD/sodipodi-0.dtd"
   xmlns:inkscape="http://www.inkscape.org/namespaces/inkscape"
   version="1.1"
   id="layer"
   x="0px"
   y="0px"
   viewBox="0 0 600 83"
   xml:space="preserve"
   sodipodi:docname="world-duty-free-logo-vector.svg"
   width="600"
   height="83"
   inkscape:version="0.92.3 (2405546, 2018-03-11)"><metadata
   id="metadata119"><rdf:RDF><cc:Work
       rdf:about=""><dc:format>image/svg+xml</dc:format><dc:type
         rdf:resource="http://purl.org/dc/dcmitype/StillImage" /><dc:title></dc:title></cc:Work></rdf:RDF></metadata><defs
   id="defs117" /><sodipodi:namedview
   pagecolor="#ffffff"
   bordercolor="#666666"
   borderopacity="1"
   objecttolerance="10"
   gridtolerance="10"
   guidetolerance="10"
   inkscape:pageopacity="0"
   inkscape:pageshadow="2"
   inkscape:window-width="1366"
   inkscape:window-height="709"
   id="namedview115"
   showgrid="false"
   showguides="true"
   inkscape:guide-bbox="true"
   inkscape:zoom="0.25"
   inkscape:cx="-338.60791"
   inkscape:cy="377.08895"
   inkscape:window-x="0"
   inkscape:window-y="0"
   inkscape:window-maximized="1"
   inkscape:current-layer="layer"><sodipodi:guide
     position="0,651.55214"
     orientation="1,0"
     id="guide229"
     inkscape:locked="false" /><sodipodi:guide
     position="0.53959216,652"
     orientation="0,1"
     id="guide235"
     inkscape:locked="false" /></sodipodi:namedview>
<style
   type="text/css"
   id="style2">
	.st0{clip-path:url(#SVGID_2_);fill:url(#SVGID_3_);}
	.st1{clip-path:url(#SVGID_5_);fill:url(#SVGID_6_);}
	.st2{fill:#FFFFFF;}
</style>


<g
   id="g227"
   transform="translate(-20.023223,-282.74197)"><g
     id="g27">
	<defs
   id="defs5">
		<path
   d="m 544.1,283.2 c -1,0.1 -1.5,2.4 -2,6.6 -1,9.6 1.6,31 7.5,44.2 1.1,2.6 2.5,3.7 4.3,3.7 4.1,0 14.3,-6.6 18.9,-9.9 -0.4,-0.7 -21.9,-36.5 -26.5,-42.7 -0.9,-1.3 -1.6,-1.9 -2.2,-1.9 z"
   id="SVGID_1_"
   inkscape:connector-curvature="0" />
	</defs>
	<clipPath
   id="SVGID_2_">
		<use
   id="use7"
   style="overflow:visible"
   xlink:href="#SVGID_1_"
   x="0"
   y="0"
   width="100%"
   height="100%" />
	</clipPath>
	
		<linearGradient
   gradientTransform="matrix(15.7334,10.6123,10.6123,-15.7334,-7830.2153,11386.239)"
   y2="730.96887"
   x2="41.244099"
   y1="730.96887"
   x1="38.6562"
   gradientUnits="userSpaceOnUse"
   id="SVGID_3_">
		<stop
   id="stop10"
   style="stop-color:#D0D0D0"
   offset="0" />
		<stop
   id="stop12"
   style="stop-color:#CBCBCB"
   offset="0.1606" />
		<stop
   id="stop14"
   style="stop-color:#BDBDBD"
   offset="0.3484" />
		<stop
   id="stop16"
   style="stop-color:#A6A6A5"
   offset="0.5498" />
		<stop
   id="stop18"
   style="stop-color:#858585"
   offset="0.7608" />
		<stop
   id="stop20"
   style="stop-color:#5C5C5B"
   offset="0.9772" />
		<stop
   id="stop22"
   style="stop-color:#575756"
   offset="1" />
	</linearGradient>
	<polygon
   id="polygon25"
   clip-path="url(#SVGID_2_)"
   points="563,352.5 515.9,320.8 551.1,268.6 598.2,300.3 "
   class="st0"
   style="fill:url(#SVGID_3_)" />
</g><g
     id="g48">
	<defs
   id="defs30">
		<path
   d="m 614.4,290.1 c -6,5.6 -27.7,25 -41.6,37.8 16.2,27.4 21.4,37.3 24.9,37.3 8.5,0 22.4,-55.2 22.4,-74 0,-2.8 -0.4,-4 -1.4,-4 -0.8,-0.1 -2.2,0.9 -4.3,2.9"
   id="SVGID_4_"
   inkscape:connector-curvature="0" />
	</defs>
	<clipPath
   id="SVGID_5_">
		<use
   id="use32"
   style="overflow:visible"
   xlink:href="#SVGID_4_"
   x="0"
   y="0"
   width="100%"
   height="100%" />
	</clipPath>
	
		<linearGradient
   gradientTransform="matrix(18.2887,0,0,-18.2887,37.4517,13612.73)"
   y2="726.49182"
   x2="31.8633"
   y1="726.49182"
   x1="29.2754"
   gradientUnits="userSpaceOnUse"
   id="SVGID_6_">
		<stop
   id="stop35"
   style="stop-color:#FFCC00"
   offset="0" />
		<stop
   id="stop37"
   style="stop-color:#FCC101"
   offset="0.1537" />
		<stop
   id="stop39"
   style="stop-color:#F4A304"
   offset="0.4252" />
		<stop
   id="stop41"
   style="stop-color:#E87308"
   offset="0.7802" />
		<stop
   id="stop43"
   style="stop-color:#DF520B"
   offset="1" />
	</linearGradient>
	<rect
   id="rect46"
   clip-path="url(#SVGID_5_)"
   height="78.099998"
   width="47.299999"
   class="st1"
   y="287.10001"
   x="572.90002"
   style="fill:url(#SVGID_6_)" />
</g><g
     id="g112">
	<path
   id="path50"
   d="m 568.9,330.2 c -4.5,2.4 -13.4,4.5 -20.2,1.5 0.2,0.4 0.4,0.9 0.5,1.3 5.4,2 12.4,1.4 19.7,-2.8"
   class="st2"
   inkscape:connector-curvature="0"
   style="fill:#ffffff" />
	<path
   id="path52"
   d="m 568.5,329.3 c -4.5,1.5 -15.2,-0.5 -22.4,-5.3 0.1,0.5 0.3,1 0.4,1.4 7.4,4.6 17.2,5.8 22,3.9"
   class="st2"
   inkscape:connector-curvature="0"
   style="fill:#ffffff" />
	<path
   id="path54"
   d="m 544.4,316.7 c 0.1,0.5 0.2,1 0.3,1.5 7.9,6.3 19,10.2 23.6,10.1 -3.8,-0.1 -15.9,-4.8 -23.9,-11.6"
   class="st2"
   inkscape:connector-curvature="0"
   style="fill:#ffffff" />
	<path
   id="path56"
   d="m 543.2,309.8 c 0.1,0.5 0.1,1 0.2,1.5 7.8,7.1 18.9,14.1 24.9,15.9 -6.4,-2.5 -17.5,-10 -25.1,-17.4"
   class="st2"
   inkscape:connector-curvature="0"
   style="fill:#ffffff" />
	<path
   id="path58"
   d="m 568.6,326.3 c -4.6,-2.9 -17.4,-13.7 -26.1,-22.8 0,0.4 0.1,0.9 0.1,1.4 8.1,8.4 19.5,17.7 26,21.4"
   class="st2"
   inkscape:connector-curvature="0"
   style="fill:#ffffff" />
	<path
   id="path60"
   d="m 568.9,325.6 c -3.6,-3 -17.3,-16.8 -26.9,-27.7 0,0.4 0,0.8 0.1,1.2 9.1,10.4 21.5,22.5 26.8,26.5"
   class="st2"
   inkscape:connector-curvature="0"
   style="fill:#ffffff" />
	<path
   id="path62"
   d="m 569.3,325 c -3.3,-3.3 -17.1,-19.5 -27.3,-32.2 0,0.4 0,0.8 0,1.2 9.2,11.5 21.4,25.5 27.3,31"
   class="st2"
   inkscape:connector-curvature="0"
   style="fill:#ffffff" />
	<path
   id="path64"
   d="m 542.4,287.9 c 0,0.3 -0.1,0.6 -0.1,1 12,16.6 22.7,30.1 27.4,35.7 -4.9,-6.3 -15.3,-19.9 -27.3,-36.7"
   class="st2"
   inkscape:connector-curvature="0"
   style="fill:#ffffff" />
	<path
   id="path66"
   d="m 543.2,284 c -0.1,0.2 -0.2,0.4 -0.2,0.7 10.5,15.8 21.6,32 27.1,39.5 -2.6,-3.6 -15.2,-22.4 -26.9,-40.2"
   class="st2"
   inkscape:connector-curvature="0"
   style="fill:#ffffff" />
	<path
   id="path68"
   d="m 619.1,303 c 0.1,-0.4 0.1,-0.9 0.2,-1.3 -15.3,1.1 -38.5,20.8 -42.3,24.2 14.6,-12 31.5,-22.2 42.1,-22.9"
   class="st2"
   inkscape:connector-curvature="0"
   style="fill:#ffffff" />
	<path
   id="path70"
   d="m 577.2,326.4 c 11.6,-8.3 28.5,-17.4 40.7,-15.9 0.1,-0.4 0.1,-0.7 0.2,-1.1 -13.5,-1.9 -32,10.2 -40.9,17"
   class="st2"
   inkscape:connector-curvature="0"
   style="fill:#ffffff" />
	<path
   id="path72"
   d="m 577.4,327.1 c 9.2,-5.3 27,-12.8 39.1,-9.3 0.1,-0.3 0.1,-0.7 0.2,-1 -9.7,-2.8 -26.6,2.3 -39.3,10.3"
   class="st2"
   inkscape:connector-curvature="0"
   style="fill:#ffffff" />
	<path
   id="path74"
   d="m 577.5,327.9 c 9.2,-3.6 26.8,-6.6 37.2,-2.1 0.1,-0.3 0.2,-0.6 0.2,-1 -9.4,-3.9 -25.6,-2.1 -37.4,3.1"
   class="st2"
   inkscape:connector-curvature="0"
   style="fill:#ffffff" />
	<path
   id="path76"
   d="m 577.4,328.8 c 8.2,-1 25.7,-0.2 35.1,5.3 0.1,-0.3 0.2,-0.6 0.3,-1 -8.9,-5 -24.6,-5.9 -35.4,-4.3"
   class="st2"
   inkscape:connector-curvature="0"
   style="fill:#ffffff" />
	<path
   id="path78"
   d="m 610.1,342 c 0.1,-0.3 0.2,-0.6 0.3,-1 -9.1,-6.7 -27.9,-11 -33.3,-11.5 4.3,0.7 24.1,5.9 33,12.5"
   class="st2"
   inkscape:connector-curvature="0"
   style="fill:#ffffff" />
	<path
   id="path80"
   d="m 607.4,350 c 0.1,-0.3 0.2,-0.6 0.3,-0.9 -7.5,-6.6 -23.2,-15.7 -31,-18.9 8.6,4.2 23.7,13.7 30.7,19.8"
   class="st2"
   inkscape:connector-curvature="0"
   style="fill:#ffffff" />
	<path
   id="path82"
   d="m 576.3,331 c 2.7,2 18.6,16.6 28,26.5 0.1,-0.3 0.3,-0.6 0.4,-0.9 -6.6,-6.9 -23.5,-22.4 -28.4,-25.6"
   class="st2"
   inkscape:connector-curvature="0"
   style="fill:#ffffff" />
	<path
   id="path84"
   d="m 600.1,363.9 c 0.2,-0.2 0.4,-0.5 0.7,-0.7 -5,-6.4 -19.8,-25.6 -25.2,-31.7 z"
   class="st2"
   inkscape:connector-curvature="0"
   style="fill:#ffffff" />
	<path
   id="path86"
   d="m 576.7,325.3 c 13.1,-11.2 30.8,-26.3 43.3,-29.7 0,-0.5 0.1,-1 0.1,-1.5 -12.9,3.2 -33.7,22.5 -43.4,31.2"
   class="st2"
   inkscape:connector-curvature="0"
   style="fill:#ffffff" />
	<path
   id="path88"
   d="m 280.3,345.2 c 0,-12.9 -9.4,-19 -19.3,-19 h -15 v 38 h 14.2 c 9,-0.1 20.1,-6.1 20.1,-19 M 252.7,358 v -25.7 h 6.2 c 8.3,0 14.3,3.6 14.3,12.9 0,9.2 -7,12.9 -15.4,12.9 h -5.1 z"
   inkscape:connector-curvature="0" />
	<path
   id="path90"
   d="m 310.3,350 c 0,3.8 -2,8.7 -8.5,8.7 -6.5,0 -8.5,-4.9 -8.5,-8.7 v -23.8 h -6.8 v 24 c 0,9.2 6.6,14.9 15.3,14.9 8.7,0 15.3,-5.7 15.3,-14.9 v -24 h -6.8 z"
   inkscape:connector-curvature="0" />
	<polygon
   id="polygon92"
   points="386.5,326.2 378.4,326.2 369,341.3 359.7,326.2 321.5,326.2 321.5,332.3 333.2,332.3 333.2,364.1 339.9,364.1 339.9,332.3 355.2,332.3 365.5,347.9 365.5,364.1 372.2,364.1 372.2,347.9 " />
	<polygon
   id="polygon94"
   points="421.6,326.3 394.3,326.3 394.3,364.3 401,364.3 401,348.5 420.6,348.5 420.6,342.4 401,342.4 401,332.5 421.6,332.5 " />
	<path
   id="path96"
   d="m 459.6,337.2 c 0,-8.5 -6.9,-10.9 -14.1,-10.9 h -17.4 v 38 h 6.8 v -16.1 h 9.1 l 8.8,16.1 h 8.2 l -10.1,-16.8 c 5.5,-0.8 8.7,-4.8 8.7,-10.3 m -24.8,5.2 v -10.3 h 10.1 c 3.5,0 7.7,0.5 7.7,5 0,4.9 -4.4,5.3 -8.3,5.3 z"
   inkscape:connector-curvature="0" />
	<polygon
   id="polygon98"
   points="495.6,326.3 466.2,326.3 466.2,364.3 496.6,364.3 496.6,358.2 473,358.2 473,347.9 494.6,347.9 494.6,341.8 473,341.8 473,332.4 495.6,332.4 " />
	<polygon
   id="polygon100"
   points="533.8,326.3 504.5,326.3 504.5,364.3 534.8,364.3 534.8,358.2 511.2,358.2 511.2,347.9 532.9,347.9 532.9,341.8 511.2,341.8 511.2,332.4 533.8,332.4 " />
	<polygon
   id="polygon102"
   points="62.2,365.2 58.5,365.2 48,334.1 37.5,365.2 33.9,365.2 20.2,326.7 24.9,326.7 35.8,358.5 46.3,326.5 49.9,326.5 60.4,358.5 71.3,326.7 75.8,326.7 " />
	<path
   id="path104"
   d="m 99.5,365.6 c -11.6,0 -19.5,-9.1 -19.5,-19.7 0,-10.6 7.9,-19.8 19.6,-19.8 11.7,0 19.5,9.1 19.5,19.7 -0.1,10.5 -8,19.8 -19.6,19.8 m 0,-35.6 c -8.7,0 -15,7 -15,15.7 0,8.7 6.3,15.9 15.1,15.9 8.8,0 15,-7 15,-15.7 0,-8.8 -6.4,-15.9 -15.1,-15.9"
   inkscape:connector-curvature="0" />
	<path
   id="path106"
   d="M 154.5,364.9 143.4,350 h -10.9 v 14.9 h -4.3 v -38.3 h 16.5 c 8.4,0 13.8,4.5 13.8,11.4 0,6.4 -4.4,10.1 -10.4,11.2 l 11.8,15.6 h -5.4 z m -10.2,-34.3 h -11.8 v 15.5 h 11.8 c 5.7,0 9.8,-3 9.8,-7.9 0,-4.7 -3.6,-7.6 -9.8,-7.6"
   inkscape:connector-curvature="0" />
	<polygon
   id="polygon108"
   points="167.7,326.7 172,326.7 172,360.9 193.5,360.9 193.5,364.9 167.7,364.9 " />
	<path
   id="path110"
   d="m 214.8,364.9 h -13.3 v -38.3 h 13.3 c 12,0 20.3,8.3 20.3,19.1 0,10.9 -8.3,19.2 -20.3,19.2 m 0,-34.3 h -9 v 30.3 h 9 c 9.7,0 15.9,-6.6 15.9,-15.1 0,-8.5 -6.2,-15.2 -15.9,-15.2"
   inkscape:connector-curvature="0" />
</g></g>
</svg>